<svg width="256" height="256" viewBox="0 0 256 256" fill="none" xmlns="http://www.w3.org/2000/svg">
<path d="M230.971 99.6516C240.1 108.597 248.471 118.283 256 128.611C252.235 101.028 237.371 75.0475 212.695 57.9267C209.575 55.7647 206.339 53.7741 203.002 51.9638C215.38 55.1452 227.474 59.3482 239.157 64.5296C222.105 42.523 196.243 27.4565 166.313 24.9683C162.529 24.6558 158.731 24.5495 154.936 24.6498C167.246 21.2167 179.82 18.8098 192.528 17.4537C166.756 6.92027 136.826 6.80475 109.662 19.6141C106.229 21.2342 102.887 23.0414 99.6527 25.0276C108.598 15.8993 118.284 7.52777 128.612 -0.00109863C101.026 3.76397 75.0486 18.6276 57.9278 43.3035C55.7658 46.4241 53.7752 49.6601 51.9649 52.9971C55.1463 40.6186 59.3493 28.5253 64.5307 16.8418C42.5241 33.8939 27.4576 59.7562 24.9694 89.6863C24.6569 93.4699 24.5506 97.2676 24.6509 101.063C21.2178 88.7525 18.8109 76.179 17.4548 63.4713C6.92136 89.243 6.80585 119.173 19.6152 146.337C21.2359 149.771 23.0431 153.113 25.0287 156.349C15.9004 147.404 7.52887 137.718 0 127.39C3.76507 154.973 18.6287 180.953 43.3046 198.074C46.4252 200.236 49.6612 202.227 52.9982 204.037C40.6197 200.856 28.5264 196.653 16.8429 191.471C33.895 213.478 59.7573 228.544 89.6874 231.033C93.5149 231.351 97.3112 231.448 101.064 231.351C88.7527 234.784 76.1781 237.191 63.4693 238.547C89.241 249.081 119.171 249.196 146.335 236.387C149.768 234.767 153.109 232.96 156.344 230.973C147.399 240.102 137.713 248.473 127.385 256.002C154.971 252.237 180.948 237.373 198.069 212.697C200.231 209.577 202.222 206.341 204.032 203.004C200.851 215.382 196.648 227.476 191.466 239.159C213.473 222.107 228.539 196.245 231.028 166.315C231.346 162.487 231.443 158.691 231.346 154.938C234.779 167.248 237.186 179.822 238.542 192.53C249.075 166.758 249.191 136.828 236.382 109.664C234.764 106.229 232.958 102.887 230.971 99.6516V99.6516Z" fill="#F23535"/>
<path d="M218.415 103.111C226.43 110.965 233.78 119.47 240.39 128.539C237.084 104.319 224.034 81.51 202.365 66.4746C199.625 64.5761 196.784 62.8283 193.854 61.2391C204.722 64.0337 215.34 67.724 225.598 72.2721C210.626 52.9503 187.917 39.7195 161.636 37.5342C158.315 37.2585 154.98 37.1657 151.649 37.2563C162.458 34.2428 173.499 32.1293 184.657 30.9375C162.029 21.6903 135.749 21.5872 111.897 32.8356C108.847 34.2748 105.918 35.867 103.109 37.5872C110.963 29.5721 119.468 22.2218 128.537 15.6118C104.317 18.918 81.5048 31.9677 66.4726 53.6372C64.5741 56.3767 62.8263 59.2177 61.2371 62.1476C64.0317 51.2797 67.722 40.6621 72.2701 30.4036C52.9483 45.3765 39.7175 68.0856 37.5321 94.3662C37.2565 97.6876 37.1637 101.022 37.2543 104.353C34.2407 93.5437 32.1273 82.5032 30.9355 71.3449C21.6882 93.9728 21.5852 120.253 32.8336 144.105C34.2728 147.155 35.865 150.084 37.5883 152.893C29.5732 145.039 22.2229 136.534 15.6129 127.465C18.9191 151.685 31.9688 174.497 53.6383 189.529C56.3778 191.428 59.2188 193.176 62.1487 194.765C51.2808 191.97 40.6632 188.28 30.4047 183.732C45.3776 203.054 68.0867 216.285 94.3673 218.47C97.7296 218.751 101.061 218.835 104.357 218.748C93.5483 221.763 82.5077 223.876 71.3491 225.067C93.977 234.314 120.258 234.417 144.109 223.168C147.123 221.745 150.056 220.159 152.898 218.417C145.043 226.432 136.538 233.782 127.469 240.392C151.689 237.086 174.502 224.036 189.534 202.367C191.432 199.627 193.18 196.786 194.769 193.856C191.975 204.724 188.284 215.342 183.736 225.6C203.058 210.628 216.289 187.919 218.474 161.638C218.755 158.276 218.839 154.944 218.752 151.648C221.766 162.457 223.879 173.498 225.071 184.656C234.318 162.028 234.421 135.748 223.173 111.896C221.746 108.884 220.158 105.951 218.415 103.111V103.111Z" fill="#D90452"/>
<path d="M206.077 106.507C212.999 113.288 219.346 120.633 225.052 128.464C222.199 107.55 210.928 87.8506 192.215 74.8696C189.85 73.2296 187.397 71.7205 184.866 70.349C194.252 72.761 203.422 75.948 212.28 79.8772C199.352 63.1903 179.74 51.7671 157.047 49.8815C154.178 49.6446 151.298 49.5644 148.421 49.6411C157.755 47.0377 167.288 45.2124 176.924 44.1839C157.384 36.1979 134.69 36.1105 114.092 45.8229C111.488 47.0512 108.955 48.4217 106.502 49.9283C113.283 43.0063 120.627 36.6594 128.459 30.9531C107.545 33.8065 87.8454 45.0768 74.8644 63.7897C73.2244 66.155 71.7153 68.6084 70.3438 71.1388C72.7558 61.753 75.9428 52.5835 79.872 43.725C63.1851 56.653 51.7619 76.2651 49.8763 98.9585C49.6359 101.862 49.561 104.74 49.6359 107.584C47.0325 98.2504 45.2072 88.7167 44.1787 79.0811C36.1928 98.6214 36.1053 121.315 45.8177 141.913C47.046 144.517 48.4165 147.05 49.9231 149.503C43.0011 142.722 36.6542 135.378 30.9479 127.546C33.8013 148.46 45.0716 168.16 63.7846 181.141C66.1503 182.78 68.6036 184.289 71.1336 185.661C61.7478 183.249 52.5783 180.062 43.7198 176.133C56.6478 192.82 76.2599 204.243 98.9533 206.129C101.857 206.369 104.732 206.444 107.579 206.369C98.2452 208.973 88.7115 210.798 79.0759 211.826C98.6162 219.812 121.31 219.9 141.908 210.187C144.511 208.959 147.045 207.589 149.498 206.082C142.717 213.004 135.373 219.351 127.541 225.057C148.455 222.204 168.154 210.934 181.136 192.221C182.776 189.855 184.285 187.402 185.656 184.872C183.244 194.257 180.057 203.427 176.128 212.285C192.815 199.357 204.238 179.745 206.124 157.052C206.364 154.148 206.439 151.273 206.364 148.426C208.967 157.76 210.793 167.294 211.821 176.929C219.807 157.389 219.895 134.696 210.182 114.097C208.954 111.494 207.583 108.96 206.077 106.507V106.507Z" fill="#8C035C"/>
<path d="M128 190.441C162.484 190.441 190.439 162.486 190.439 128.002C190.439 93.5179 162.484 65.563 128 65.563C93.5159 65.563 65.561 93.5179 65.561 128.002C65.561 162.486 93.5159 190.441 128 190.441Z" fill="#0D0D0D"/>
</svg>
